<svg xmlns="http://www.w3.org/2000/svg" xmlns:xlink="http://www.w3.org/1999/xlink" width="381" zoomAndPan="magnify" viewBox="0 0 285.75 113.249998" height="151" preserveAspectRatio="xMidYMid meet" version="1.0"><defs><g/><clipPath id="ba031b0b2b"><path d="M 7.78125 37.277344 L 270.695312 37.277344 L 270.695312 97.96875 L 7.78125 97.96875 Z M 7.78125 37.277344 " clip-rule="nonzero"/></clipPath><clipPath id="fb7b852548"><path d="M 20.445312 37.277344 L 257.878906 37.277344 C 261.238281 37.277344 264.460938 38.609375 266.835938 40.984375 C 269.210938 43.359375 270.546875 46.582031 270.546875 49.941406 L 270.546875 85.300781 C 270.546875 88.660156 269.210938 91.882812 266.835938 94.257812 C 264.460938 96.632812 261.238281 97.96875 257.878906 97.96875 L 20.445312 97.96875 C 17.085938 97.96875 13.867188 96.632812 11.492188 94.257812 C 9.117188 91.882812 7.78125 88.660156 7.78125 85.300781 L 7.78125 49.941406 C 7.78125 46.582031 9.117188 43.359375 11.492188 40.984375 C 13.867188 38.609375 17.085938 37.277344 20.445312 37.277344 Z M 20.445312 37.277344 " clip-rule="nonzero"/></clipPath><clipPath id="bf9deb4a4d"><path d="M 1 0 L 66.382812 0 L 66.382812 88.664062 L 1 88.664062 Z M 1 0 " clip-rule="nonzero"/></clipPath></defs><g clip-path="url(#ba031b0b2b)"><g clip-path="url(#fb7b852548)"><path fill="#000000" d="M 7.78125 37.277344 L 270.460938 37.277344 L 270.460938 97.96875 L 7.78125 97.96875 Z M 7.78125 37.277344 " fill-opacity="1" fill-rule="nonzero"/></g></g><g clip-path="url(#bf9deb4a4d)"><path fill="#2e6bc6" d="M 66.046875 37.335938 L 64.542969 24.066406 C 64.277344 21.742188 62.300781 19.972656 59.957031 19.972656 L 52.488281 19.972656 L 52.488281 16.1875 C 52.488281 7.300781 45.269531 0.0820312 36.382812 0.0820312 C 27.496094 0.0820312 20.277344 7.300781 20.277344 16.1875 L 20.277344 19.972656 L 12.808594 19.972656 C 10.464844 19.972656 8.488281 21.742188 8.222656 24.066406 L 1.476562 83.289062 C 1.144531 86.128906 3.367188 88.597656 6.226562 88.597656 L 8.738281 88.597656 C 19.105469 44.101562 52.324219 37.933594 66.046875 37.335938 Z M 50.433594 24.808594 C 51.566406 24.808594 52.488281 25.734375 52.488281 26.863281 C 52.488281 27.996094 51.566406 28.921875 50.433594 28.921875 C 49.300781 28.921875 48.375 27.996094 48.375 26.863281 C 48.375 25.734375 49.300781 24.808594 50.433594 24.808594 Z M 24.390625 16.210938 C 24.390625 9.605469 29.757812 4.21875 36.382812 4.21875 C 43.007812 4.21875 48.375 9.605469 48.375 16.210938 L 48.375 19.996094 L 24.390625 19.996094 Z M 22.332031 24.808594 C 23.464844 24.808594 24.390625 25.734375 24.390625 26.863281 C 24.390625 27.996094 23.464844 28.921875 22.332031 28.921875 C 21.203125 28.921875 20.277344 27.996094 20.277344 26.863281 C 20.277344 25.734375 21.203125 24.808594 22.332031 24.808594 Z M 22.332031 24.808594 " fill-opacity="1" fill-rule="nonzero"/></g><g fill="#f5fff9" fill-opacity="1"><g transform="translate(51.304904, 84.955382)"><g><path d="M 4.59375 -2.859375 L 4.59375 -32.59375 C 4.59375 -33.476562 4.898438 -34.226562 5.515625 -34.84375 C 6.128906 -35.457031 6.878906 -35.765625 7.765625 -35.765625 L 28.609375 -35.765625 C 29.390625 -35.765625 30.0625 -35.484375 30.625 -34.921875 C 31.1875 -34.359375 31.46875 -33.6875 31.46875 -32.90625 C 31.46875 -32.125 31.1875 -31.453125 30.625 -30.890625 C 30.0625 -30.328125 29.390625 -30.046875 28.609375 -30.046875 L 10.890625 -30.046875 L 10.890625 -20.28125 L 26.3125 -20.28125 C 27.09375 -20.28125 27.765625 -20 28.328125 -19.4375 C 28.890625 -18.875 29.171875 -18.203125 29.171875 -17.421875 C 29.171875 -16.640625 28.890625 -15.96875 28.328125 -15.40625 C 27.765625 -14.84375 27.09375 -14.5625 26.3125 -14.5625 L 10.890625 -14.5625 L 10.890625 -2.859375 C 10.890625 -1.972656 10.585938 -1.234375 9.984375 -0.640625 C 9.390625 -0.046875 8.648438 0.25 7.765625 0.25 C 6.878906 0.25 6.128906 -0.046875 5.515625 -0.640625 C 4.898438 -1.234375 4.59375 -1.972656 4.59375 -2.859375 Z M 4.59375 -2.859375 "/></g></g></g><g fill="#f5fff9" fill-opacity="1"><g transform="translate(79.505763, 84.955382)"><g><path d="M 2.09375 -7.875 C 2.09375 -9.332031 2.363281 -10.601562 2.90625 -11.6875 C 3.457031 -12.78125 4.21875 -13.6875 5.1875 -14.40625 C 6.15625 -15.125 7.328125 -15.660156 8.703125 -16.015625 C 10.085938 -16.367188 11.597656 -16.546875 13.234375 -16.546875 C 14.765625 -16.546875 16.09375 -16.441406 17.21875 -16.234375 C 18.34375 -16.035156 19.429688 -15.769531 20.484375 -15.4375 L 20.484375 -16.09375 C 20.484375 -18.03125 19.910156 -19.492188 18.765625 -20.484375 C 17.628906 -21.472656 15.972656 -21.96875 13.796875 -21.96875 C 12.597656 -21.96875 11.519531 -21.859375 10.5625 -21.640625 C 9.613281 -21.421875 8.695312 -21.171875 7.8125 -20.890625 C 7.476562 -20.796875 7.15625 -20.75 6.84375 -20.75 C 6.132812 -20.75 5.519531 -20.992188 5 -21.484375 C 4.488281 -21.972656 4.234375 -22.578125 4.234375 -23.296875 C 4.234375 -23.878906 4.394531 -24.390625 4.71875 -24.828125 C 5.050781 -25.273438 5.453125 -25.582031 5.921875 -25.75 C 7.222656 -26.226562 8.550781 -26.609375 9.90625 -26.890625 C 11.269531 -27.179688 12.835938 -27.328125 14.609375 -27.328125 C 18.390625 -27.328125 21.3125 -26.40625 23.375 -24.5625 C 25.4375 -22.726562 26.46875 -19.875 26.46875 -16 L 26.46875 -2.703125 C 26.46875 -1.859375 26.175781 -1.15625 25.59375 -0.59375 C 25.019531 -0.03125 24.304688 0.25 23.453125 0.25 C 22.566406 0.25 21.84375 -0.0078125 21.28125 -0.53125 C 20.71875 -1.0625 20.4375 -1.664062 20.4375 -2.34375 L 20.4375 -3.375 C 19.519531 -2.28125 18.34375 -1.347656 16.90625 -0.578125 C 15.476562 0.179688 13.726562 0.5625 11.65625 0.5625 C 10.394531 0.5625 9.179688 0.378906 8.015625 0.015625 C 6.859375 -0.335938 5.84375 -0.863281 4.96875 -1.5625 C 4.101562 -2.257812 3.40625 -3.125 2.875 -4.15625 C 2.351562 -5.195312 2.09375 -6.398438 2.09375 -7.765625 Z M 8.125 -8.125 L 8.125 -8.015625 C 8.125 -6.722656 8.617188 -5.71875 9.609375 -5 C 10.597656 -4.289062 11.859375 -3.9375 13.390625 -3.9375 C 14.410156 -3.9375 15.363281 -4.070312 16.25 -4.34375 C 17.132812 -4.613281 17.890625 -5.003906 18.515625 -5.515625 C 19.148438 -6.023438 19.65625 -6.640625 20.03125 -7.359375 C 20.40625 -8.078125 20.59375 -8.859375 20.59375 -9.703125 L 20.59375 -11.546875 C 19.8125 -11.847656 18.898438 -12.101562 17.859375 -12.3125 C 16.816406 -12.519531 15.679688 -12.625 14.453125 -12.625 C 12.410156 -12.625 10.84375 -12.226562 9.75 -11.4375 C 8.664062 -10.65625 8.125 -9.550781 8.125 -8.125 Z M 8.125 -8.125 "/></g></g></g><g fill="#f5fff9" fill-opacity="1"><g transform="translate(104.1814, 84.955382)"><g><path d="M 1.6875 -4.859375 C 1.6875 -5.535156 1.921875 -6.117188 2.390625 -6.609375 C 2.867188 -7.109375 3.46875 -7.359375 4.1875 -7.359375 C 4.726562 -7.359375 5.171875 -7.238281 5.515625 -7 C 6.804688 -6.039062 8.113281 -5.363281 9.4375 -4.96875 C 10.769531 -4.582031 12.050781 -4.390625 13.28125 -4.390625 C 14.613281 -4.390625 15.644531 -4.65625 16.375 -5.1875 C 17.101562 -5.71875 17.46875 -6.425781 17.46875 -7.3125 L 17.46875 -7.40625 C 17.46875 -7.914062 17.304688 -8.359375 16.984375 -8.734375 C 16.660156 -9.109375 16.21875 -9.429688 15.65625 -9.703125 C 15.09375 -9.972656 14.445312 -10.226562 13.71875 -10.46875 C 12.988281 -10.707031 12.226562 -10.945312 11.4375 -11.1875 C 10.457031 -11.457031 9.460938 -11.78125 8.453125 -12.15625 C 7.453125 -12.53125 6.550781 -13.015625 5.75 -13.609375 C 4.945312 -14.210938 4.289062 -14.957031 3.78125 -15.84375 C 3.269531 -16.726562 3.015625 -17.816406 3.015625 -19.109375 L 3.015625 -19.21875 C 3.015625 -20.507812 3.257812 -21.65625 3.75 -22.65625 C 4.25 -23.664062 4.929688 -24.523438 5.796875 -25.234375 C 6.671875 -25.953125 7.691406 -26.5 8.859375 -26.875 C 10.035156 -27.25 11.289062 -27.4375 12.625 -27.4375 C 14.050781 -27.4375 15.492188 -27.238281 16.953125 -26.84375 C 18.421875 -26.457031 19.804688 -25.921875 21.109375 -25.234375 C 21.546875 -24.992188 21.898438 -24.675781 22.171875 -24.28125 C 22.441406 -23.894531 22.578125 -23.429688 22.578125 -22.890625 C 22.578125 -22.171875 22.332031 -21.570312 21.84375 -21.09375 C 21.351562 -20.625 20.75 -20.390625 20.03125 -20.390625 C 19.757812 -20.390625 19.535156 -20.414062 19.359375 -20.46875 C 19.191406 -20.519531 19.003906 -20.59375 18.796875 -20.6875 C 17.671875 -21.269531 16.570312 -21.722656 15.5 -22.046875 C 14.425781 -22.367188 13.414062 -22.53125 12.46875 -22.53125 C 11.269531 -22.53125 10.335938 -22.28125 9.671875 -21.78125 C 9.015625 -21.289062 8.6875 -20.65625 8.6875 -19.875 L 8.6875 -19.765625 C 8.6875 -19.253906 8.851562 -18.820312 9.1875 -18.46875 C 9.53125 -18.113281 9.984375 -17.789062 10.546875 -17.5 C 11.109375 -17.207031 11.753906 -16.941406 12.484375 -16.703125 C 13.222656 -16.460938 13.984375 -16.207031 14.765625 -15.9375 C 15.753906 -15.632812 16.742188 -15.273438 17.734375 -14.859375 C 18.722656 -14.453125 19.613281 -13.953125 20.40625 -13.359375 C 21.207031 -12.765625 21.863281 -12.039062 22.375 -11.1875 C 22.882812 -10.332031 23.140625 -9.296875 23.140625 -8.078125 L 23.140625 -7.96875 C 23.140625 -6.539062 22.882812 -5.296875 22.375 -4.234375 C 21.863281 -3.179688 21.15625 -2.304688 20.25 -1.609375 C 19.351562 -0.910156 18.289062 -0.378906 17.0625 -0.015625 C 15.832031 0.335938 14.519531 0.515625 13.125 0.515625 C 11.394531 0.515625 9.644531 0.25 7.875 -0.28125 C 6.101562 -0.8125 4.429688 -1.617188 2.859375 -2.703125 C 2.515625 -2.878906 2.234375 -3.15625 2.015625 -3.53125 C 1.796875 -3.90625 1.6875 -4.347656 1.6875 -4.859375 Z M 1.6875 -4.859375 "/></g></g></g><g fill="#f5fff9" fill-opacity="1"><g transform="translate(124.463269, 84.955382)"><g><path d="M 1.484375 -24.328125 C 1.484375 -25.066406 1.738281 -25.691406 2.25 -26.203125 C 2.757812 -26.722656 3.390625 -26.984375 4.140625 -26.984375 L 5.15625 -26.984375 L 5.15625 -31.578125 C 5.15625 -32.429688 5.453125 -33.15625 6.046875 -33.75 C 6.648438 -34.34375 7.394531 -34.640625 8.28125 -34.640625 C 9.125 -34.640625 9.84375 -34.34375 10.4375 -33.75 C 11.039062 -33.15625 11.34375 -32.429688 11.34375 -31.578125 L 11.34375 -26.984375 L 16.203125 -26.984375 C 16.953125 -26.984375 17.585938 -26.722656 18.109375 -26.203125 C 18.640625 -25.691406 18.90625 -25.066406 18.90625 -24.328125 C 18.90625 -23.578125 18.640625 -22.941406 18.109375 -22.421875 C 17.585938 -21.910156 16.953125 -21.65625 16.203125 -21.65625 L 11.34375 -21.65625 L 11.34375 -8.4375 C 11.34375 -7.238281 11.628906 -6.375 12.203125 -5.84375 C 12.785156 -5.320312 13.601562 -5.0625 14.65625 -5.0625 C 15.03125 -5.0625 15.351562 -5.085938 15.625 -5.140625 C 15.90625 -5.191406 16.097656 -5.21875 16.203125 -5.21875 C 16.878906 -5.21875 17.476562 -4.96875 18 -4.46875 C 18.53125 -3.976562 18.796875 -3.375 18.796875 -2.65625 C 18.796875 -2.070312 18.632812 -1.566406 18.3125 -1.140625 C 17.988281 -0.722656 17.609375 -0.425781 17.171875 -0.25 C 16.484375 -0.0078125 15.804688 0.164062 15.140625 0.28125 C 14.484375 0.394531 13.742188 0.453125 12.921875 0.453125 C 11.796875 0.453125 10.753906 0.316406 9.796875 0.046875 C 8.847656 -0.222656 8.023438 -0.664062 7.328125 -1.28125 C 6.628906 -1.894531 6.09375 -2.710938 5.71875 -3.734375 C 5.34375 -4.753906 5.15625 -5.992188 5.15625 -7.453125 L 5.15625 -21.65625 L 4.140625 -21.65625 C 3.390625 -21.65625 2.757812 -21.910156 2.25 -22.421875 C 1.738281 -22.941406 1.484375 -23.578125 1.484375 -24.328125 Z M 1.484375 -24.328125 "/></g></g></g><g fill="#f5fff9" fill-opacity="1"><g transform="translate(140.147027, 84.955382)"><g/></g></g><g fill="#f5fff9" fill-opacity="1"><g transform="translate(145.561662, 84.955382)"><g><path d="M 4.59375 -32.59375 C 4.59375 -33.476562 4.898438 -34.226562 5.515625 -34.84375 C 6.128906 -35.457031 6.878906 -35.765625 7.765625 -35.765625 L 17.9375 -35.765625 C 20.757812 -35.765625 23.328125 -35.3125 25.640625 -34.40625 C 27.960938 -33.507812 29.96875 -32.257812 31.65625 -30.65625 C 33.34375 -29.050781 34.644531 -27.164062 35.5625 -25 C 36.476562 -22.84375 36.9375 -20.503906 36.9375 -17.984375 L 36.9375 -17.890625 C 36.9375 -15.367188 36.476562 -13.015625 35.5625 -10.828125 C 34.644531 -8.648438 33.34375 -6.757812 31.65625 -5.15625 C 29.96875 -3.5625 27.960938 -2.300781 25.640625 -1.375 C 23.328125 -0.457031 20.757812 0 17.9375 0 L 7.765625 0 C 6.878906 0 6.128906 -0.304688 5.515625 -0.921875 C 4.898438 -1.535156 4.59375 -2.285156 4.59375 -3.171875 Z M 10.890625 -5.71875 L 17.9375 -5.71875 C 19.8125 -5.71875 21.515625 -6.015625 23.046875 -6.609375 C 24.578125 -7.210938 25.878906 -8.050781 26.953125 -9.125 C 28.023438 -10.195312 28.859375 -11.472656 29.453125 -12.953125 C 30.046875 -14.429688 30.34375 -16.039062 30.34375 -17.78125 L 30.34375 -17.890625 C 30.34375 -19.617188 30.046875 -21.234375 29.453125 -22.734375 C 28.859375 -24.234375 28.023438 -25.519531 26.953125 -26.59375 C 25.878906 -27.664062 24.578125 -28.507812 23.046875 -29.125 C 21.515625 -29.738281 19.8125 -30.046875 17.9375 -30.046875 L 10.890625 -30.046875 Z M 10.890625 -5.71875 "/></g></g></g><g fill="#f5fff9" fill-opacity="1"><g transform="translate(180.199874, 84.955382)"><g><path d="M 2.40625 -13.484375 C 2.40625 -15.429688 2.726562 -17.253906 3.375 -18.953125 C 4.019531 -20.660156 4.929688 -22.148438 6.109375 -23.421875 C 7.285156 -24.703125 8.671875 -25.707031 10.265625 -26.4375 C 11.867188 -27.175781 13.640625 -27.546875 15.578125 -27.546875 C 17.722656 -27.546875 19.597656 -27.144531 21.203125 -26.34375 C 22.804688 -25.539062 24.144531 -24.5 25.21875 -23.21875 C 26.289062 -21.945312 27.085938 -20.523438 27.609375 -18.953125 C 28.140625 -17.390625 28.40625 -15.820312 28.40625 -14.25 C 28.40625 -13.363281 28.113281 -12.648438 27.53125 -12.109375 C 26.957031 -11.566406 26.28125 -11.296875 25.5 -11.296875 L 8.578125 -11.296875 C 8.921875 -9.046875 9.789062 -7.335938 11.1875 -6.171875 C 12.582031 -5.015625 14.300781 -4.4375 16.34375 -4.4375 C 17.644531 -4.4375 18.8125 -4.648438 19.84375 -5.078125 C 20.882812 -5.503906 21.847656 -6.078125 22.734375 -6.796875 C 22.972656 -6.960938 23.203125 -7.097656 23.421875 -7.203125 C 23.648438 -7.304688 23.953125 -7.359375 24.328125 -7.359375 C 25.003906 -7.359375 25.578125 -7.117188 26.046875 -6.640625 C 26.523438 -6.160156 26.765625 -5.566406 26.765625 -4.859375 C 26.765625 -4.484375 26.6875 -4.125 26.53125 -3.78125 C 26.382812 -3.4375 26.191406 -3.164062 25.953125 -2.96875 C 24.722656 -1.875 23.332031 -1.003906 21.78125 -0.359375 C 20.238281 0.285156 18.394531 0.609375 16.25 0.609375 C 14.300781 0.609375 12.484375 0.269531 10.796875 -0.40625 C 9.117188 -1.09375 7.65625 -2.046875 6.40625 -3.265625 C 5.164062 -4.492188 4.1875 -5.96875 3.46875 -7.6875 C 2.757812 -9.40625 2.40625 -11.304688 2.40625 -13.390625 Z M 8.53125 -15.375 L 22.375 -15.375 C 22.269531 -16.363281 22.046875 -17.289062 21.703125 -18.15625 C 21.367188 -19.03125 20.910156 -19.78125 20.328125 -20.40625 C 19.753906 -21.039062 19.066406 -21.546875 18.265625 -21.921875 C 17.460938 -22.296875 16.550781 -22.484375 15.53125 -22.484375 C 13.59375 -22.484375 12.007812 -21.832031 10.78125 -20.53125 C 9.550781 -19.238281 8.800781 -17.519531 8.53125 -15.375 Z M 8.53125 -15.375 "/></g></g></g><g fill="#f5fff9" fill-opacity="1"><g transform="translate(205.744042, 84.955382)"><g><path d="M 2.09375 -7.875 C 2.09375 -9.332031 2.363281 -10.601562 2.90625 -11.6875 C 3.457031 -12.78125 4.21875 -13.6875 5.1875 -14.40625 C 6.15625 -15.125 7.328125 -15.660156 8.703125 -16.015625 C 10.085938 -16.367188 11.597656 -16.546875 13.234375 -16.546875 C 14.765625 -16.546875 16.09375 -16.441406 17.21875 -16.234375 C 18.34375 -16.035156 19.429688 -15.769531 20.484375 -15.4375 L 20.484375 -16.09375 C 20.484375 -18.03125 19.910156 -19.492188 18.765625 -20.484375 C 17.628906 -21.472656 15.972656 -21.96875 13.796875 -21.96875 C 12.597656 -21.96875 11.519531 -21.859375 10.5625 -21.640625 C 9.613281 -21.421875 8.695312 -21.171875 7.8125 -20.890625 C 7.476562 -20.796875 7.15625 -20.75 6.84375 -20.75 C 6.132812 -20.75 5.519531 -20.992188 5 -21.484375 C 4.488281 -21.972656 4.234375 -22.578125 4.234375 -23.296875 C 4.234375 -23.878906 4.394531 -24.390625 4.71875 -24.828125 C 5.050781 -25.273438 5.453125 -25.582031 5.921875 -25.75 C 7.222656 -26.226562 8.550781 -26.609375 9.90625 -26.890625 C 11.269531 -27.179688 12.835938 -27.328125 14.609375 -27.328125 C 18.390625 -27.328125 21.3125 -26.40625 23.375 -24.5625 C 25.4375 -22.726562 26.46875 -19.875 26.46875 -16 L 26.46875 -2.703125 C 26.46875 -1.859375 26.175781 -1.15625 25.59375 -0.59375 C 25.019531 -0.03125 24.304688 0.25 23.453125 0.25 C 22.566406 0.25 21.84375 -0.0078125 21.28125 -0.53125 C 20.71875 -1.0625 20.4375 -1.664062 20.4375 -2.34375 L 20.4375 -3.375 C 19.519531 -2.28125 18.34375 -1.347656 16.90625 -0.578125 C 15.476562 0.179688 13.726562 0.5625 11.65625 0.5625 C 10.394531 0.5625 9.179688 0.378906 8.015625 0.015625 C 6.859375 -0.335938 5.84375 -0.863281 4.96875 -1.5625 C 4.101562 -2.257812 3.40625 -3.125 2.875 -4.15625 C 2.351562 -5.195312 2.09375 -6.398438 2.09375 -7.765625 Z M 8.125 -8.125 L 8.125 -8.015625 C 8.125 -6.722656 8.617188 -5.71875 9.609375 -5 C 10.597656 -4.289062 11.859375 -3.9375 13.390625 -3.9375 C 14.410156 -3.9375 15.363281 -4.070312 16.25 -4.34375 C 17.132812 -4.613281 17.890625 -5.003906 18.515625 -5.515625 C 19.148438 -6.023438 19.65625 -6.640625 20.03125 -7.359375 C 20.40625 -8.078125 20.59375 -8.859375 20.59375 -9.703125 L 20.59375 -11.546875 C 19.8125 -11.847656 18.898438 -12.101562 17.859375 -12.3125 C 16.816406 -12.519531 15.679688 -12.625 14.453125 -12.625 C 12.410156 -12.625 10.84375 -12.226562 9.75 -11.4375 C 8.664062 -10.65625 8.125 -9.550781 8.125 -8.125 Z M 8.125 -8.125 "/></g></g></g><g fill="#f5fff9" fill-opacity="1"><g transform="translate(230.419679, 84.955382)"><g><path d="M 4.234375 -34.484375 C 4.234375 -35.335938 4.523438 -36.0625 5.109375 -36.65625 C 5.691406 -37.25 6.425781 -37.546875 7.3125 -37.546875 C 8.195312 -37.546875 8.9375 -37.25 9.53125 -36.65625 C 10.125 -36.0625 10.421875 -35.335938 10.421875 -34.484375 L 10.421875 -2.8125 C 10.421875 -1.925781 10.125 -1.191406 9.53125 -0.609375 C 8.9375 -0.0351562 8.195312 0.25 7.3125 0.25 C 6.457031 0.25 5.726562 -0.0351562 5.125 -0.609375 C 4.53125 -1.191406 4.234375 -1.925781 4.234375 -2.8125 Z M 4.234375 -34.484375 "/></g></g></g><g fill="#f5fff9" fill-opacity="1"><g transform="translate(239.717166, 84.955382)"><g><path d="M 1.6875 -4.859375 C 1.6875 -5.535156 1.921875 -6.117188 2.390625 -6.609375 C 2.867188 -7.109375 3.46875 -7.359375 4.1875 -7.359375 C 4.726562 -7.359375 5.171875 -7.238281 5.515625 -7 C 6.804688 -6.039062 8.113281 -5.363281 9.4375 -4.96875 C 10.769531 -4.582031 12.050781 -4.390625 13.28125 -4.390625 C 14.613281 -4.390625 15.644531 -4.65625 16.375 -5.1875 C 17.101562 -5.71875 17.46875 -6.425781 17.46875 -7.3125 L 17.46875 -7.40625 C 17.46875 -7.914062 17.304688 -8.359375 16.984375 -8.734375 C 16.660156 -9.109375 16.21875 -9.429688 15.65625 -9.703125 C 15.09375 -9.972656 14.445312 -10.226562 13.71875 -10.46875 C 12.988281 -10.707031 12.226562 -10.945312 11.4375 -11.1875 C 10.457031 -11.457031 9.460938 -11.78125 8.453125 -12.15625 C 7.453125 -12.53125 6.550781 -13.015625 5.75 -13.609375 C 4.945312 -14.210938 4.289062 -14.957031 3.78125 -15.84375 C 3.269531 -16.726562 3.015625 -17.816406 3.015625 -19.109375 L 3.015625 -19.21875 C 3.015625 -20.507812 3.257812 -21.65625 3.75 -22.65625 C 4.25 -23.664062 4.929688 -24.523438 5.796875 -25.234375 C 6.671875 -25.953125 7.691406 -26.5 8.859375 -26.875 C 10.035156 -27.25 11.289062 -27.4375 12.625 -27.4375 C 14.050781 -27.4375 15.492188 -27.238281 16.953125 -26.84375 C 18.421875 -26.457031 19.804688 -25.921875 21.109375 -25.234375 C 21.546875 -24.992188 21.898438 -24.675781 22.171875 -24.28125 C 22.441406 -23.894531 22.578125 -23.429688 22.578125 -22.890625 C 22.578125 -22.171875 22.332031 -21.570312 21.84375 -21.09375 C 21.351562 -20.625 20.75 -20.390625 20.03125 -20.390625 C 19.757812 -20.390625 19.535156 -20.414062 19.359375 -20.46875 C 19.191406 -20.519531 19.003906 -20.59375 18.796875 -20.6875 C 17.671875 -21.269531 16.570312 -21.722656 15.5 -22.046875 C 14.425781 -22.367188 13.414062 -22.53125 12.46875 -22.53125 C 11.269531 -22.53125 10.335938 -22.28125 9.671875 -21.78125 C 9.015625 -21.289062 8.6875 -20.65625 8.6875 -19.875 L 8.6875 -19.765625 C 8.6875 -19.253906 8.851562 -18.820312 9.1875 -18.46875 C 9.53125 -18.113281 9.984375 -17.789062 10.546875 -17.5 C 11.109375 -17.207031 11.753906 -16.941406 12.484375 -16.703125 C 13.222656 -16.460938 13.984375 -16.207031 14.765625 -15.9375 C 15.753906 -15.632812 16.742188 -15.273438 17.734375 -14.859375 C 18.722656 -14.453125 19.613281 -13.953125 20.40625 -13.359375 C 21.207031 -12.765625 21.863281 -12.039062 22.375 -11.1875 C 22.882812 -10.332031 23.140625 -9.296875 23.140625 -8.078125 L 23.140625 -7.96875 C 23.140625 -6.539062 22.882812 -5.296875 22.375 -4.234375 C 21.863281 -3.179688 21.15625 -2.304688 20.25 -1.609375 C 19.351562 -0.910156 18.289062 -0.378906 17.0625 -0.015625 C 15.832031 0.335938 14.519531 0.515625 13.125 0.515625 C 11.394531 0.515625 9.644531 0.25 7.875 -0.28125 C 6.101562 -0.8125 4.429688 -1.617188 2.859375 -2.703125 C 2.515625 -2.878906 2.234375 -3.15625 2.015625 -3.53125 C 1.796875 -3.90625 1.6875 -4.347656 1.6875 -4.859375 Z M 1.6875 -4.859375 "/></g></g></g></svg>